<svg width="1280" height="176" viewBox="0 0 1280 176" fill="none" xmlns="http://www.w3.org/2000/svg">
<path fill-rule="evenodd" clip-rule="evenodd" d="M0 0L30.9333 7.33333C60.8 14.6667 121.6 29.3333 182.4 29.3333C244.267 29.3333 305.067 14.6667 365.867 22C426.667 29.3333 487.467 58.6667 548.267 88C609.067 117.333 670.933 146.667 731.733 146.667C792.533 146.667 853.333 117.333 914.133 95.3333C974.933 73.3333 1035.73 58.6667 1097.6 51.3333C1158.4 44 1219.2 44 1249.07 44H1280V176H1249.07C1219.2 176 1158.4 176 1097.6 176C1035.73 176 974.933 176 914.133 176C853.333 176 792.533 176 731.733 176C670.933 176 609.067 176 548.267 176C487.467 176 426.667 176 365.867 176C305.067 176 244.267 176 182.4 176C121.6 176 60.8 176 30.9333 176H0V0Z" fill="#CFE0D1"/>
</svg>
